# xmcd
#
# Track frame offsets:
#	150
#	11172
#	18631
#	36188
#	49237
#	67063
#	80835
#	90216
#	104203
#	116907
#	126065
#	142940
#	152732
#	166312
#	185227
#
# Disc length: 2666 seconds
# Revision: 0
# Processed by: cddbd v1.5.2PL0 Copyright (c) Steve Scherf et al.
# Submitted via: dBpowerAMP V12.0
#
DISCID=d70a680f
DTITLE=James Reams and The Barnstormers - One Foot In The Honky Tonk
DYEAR=2011
DGENRE=Country
TTITLE0=One Foot In The Honky Tonk
TTITLE1=Cornbread, Molasses A&  Sassafras Tea
TTITLE2=Almost Hear The Blues
TTITLE3=Susquehanna Getaway
TTITLE4=City That Lies Foursquare
TTITLE5=Bailing Again
TTITLE6=Goin' Home
TTITLE7=Snake Eyes
TTITLE8=Florida Blues
TTITLE9=I Can't Settle Down
TTITLE10=In The Corner at the Table by the Jukebox
TTITLE11=Rocky Creek
TTITLE12=River Rising
TTITLE13=King Of The Blues
TTITLE14=Passamaquoddy
EXTD=
EXTT0=
EXTT1=
EXTT2=
EXTT3=
EXTT4=
EXTT5=
EXTT6=
EXTT7=
EXTT8=
EXTT9=
EXTT10=
EXTT11=
EXTT12=
EXTT13=
EXTT14=
PLAYORDER=
